<?xml version="1.0" encoding="utf-8"?>
<!-- Generator: Adobe Illustrator 25.2.1, SVG Export Plug-In . SVG Version: 6.00 Build 0)  -->
<svg version="1.1" id="Layer_1" xmlns="http://www.w3.org/2000/svg" xmlns:xlink="http://www.w3.org/1999/xlink" x="0px" y="0px"
	 viewBox="0 0 239.5 67.1" style="enable-background:new 0 0 239.5 67.1;" xml:space="preserve">
<style type="text/css">
	.st0{fill:#20346A;}
	.st1{fill:#05C617;}
</style>
<g>
	<path class="st0" d="M51.4,51.2h-4.2l3.6-20.7h4.2L51.4,51.2z"/>
	<path class="st0" d="M73.1,33.9h-6.2l-3,17.3h-4.2l3-17.3h-6.1l0.6-3.5h16.4L73.1,33.9z"/>
	<path class="st0" d="M89.1,44.3c-0.2,1.4-0.7,2.7-1.5,3.8c-0.8,1.1-1.9,2-3.2,2.6c-1.3,0.6-2.7,0.9-4.2,0.8c-1.4,0-2.6-0.3-3.6-0.9
		c-1-0.6-1.8-1.5-2.4-2.6s-0.9-2.5-1-4c-0.1-1.2,0.1-2.6,0.4-4.4c0.3-1.7,0.9-3.3,1.7-4.6c0.8-1.3,1.7-2.4,2.8-3.2
		c1.5-1.1,3.3-1.6,5.3-1.6c2.1,0,3.9,0.7,5.1,2c1.3,1.3,1.9,3.1,2.1,5.4l-4.2,0c0-1.3-0.3-2.3-0.8-2.9c-0.5-0.6-1.3-0.9-2.4-1
		c-1.4,0-2.6,0.5-3.5,1.5s-1.5,2.6-1.8,4.7c-0.3,2-0.4,3.5-0.4,4.5c0,1.3,0.3,2.2,0.8,2.8c0.5,0.6,1.2,0.9,2.2,0.9
		c1.3,0,2.3-0.3,3.1-0.9c0.8-0.7,1.3-1.6,1.5-2.8L89.1,44.3z"/>
</g>
<g>
	<path class="st1" d="M115.8,33.9h-6.2l-3,17.3h-4.2l3-17.3h-6.1l0.6-3.5h16.4L115.8,33.9z"/>
	<path class="st1" d="M124.6,39.7c-0.6-0.1-1-0.1-1.4-0.1c-1.4,0-2.6,0.5-3.4,1.6l-1.8,10.1h-4l2.7-15.4l3.8,0l-0.4,1.9
		c1-1.5,2.2-2.2,3.6-2.2c0.4,0,0.9,0.1,1.4,0.2L124.6,39.7z"/>
	<path class="st1" d="M133,51.2c-0.1-0.4-0.2-0.9-0.2-1.4c-1.2,1.2-2.5,1.7-3.9,1.7c-1.4,0-2.5-0.5-3.4-1.3s-1.3-1.9-1.2-3.2
		c0.1-1.7,0.8-3,2.1-3.9c1.3-0.9,3.1-1.3,5.4-1.3l1.9,0l0.2-0.9c0.1-0.3,0.1-0.6,0-0.9c0-0.4-0.2-0.8-0.5-1
		c-0.3-0.3-0.7-0.4-1.1-0.4c-0.6,0-1.2,0.1-1.6,0.5c-0.4,0.3-0.7,0.8-0.8,1.4l-4,0c0.1-1.5,0.7-2.7,2-3.6c1.3-0.9,2.9-1.4,4.8-1.3
		c1.7,0,3.1,0.6,4.1,1.6c1,1,1.4,2.3,1.2,3.9l-1.2,7.4l-0.1,0.9c0,0.7,0.1,1.2,0.2,1.7l0,0.3L133,51.2L133,51.2z M130,48.4
		c1.2,0,2.2-0.5,3-1.5l0.5-2.7l-1.4,0c-1.5,0-2.6,0.5-3.2,1.4c-0.2,0.3-0.4,0.7-0.4,1.2c-0.1,0.5,0,0.9,0.3,1.2
		C129.1,48.2,129.5,48.4,130,48.4z"/>
	<path class="st1" d="M147.1,35.5c1.4,0,2.6,0.6,3.5,1.7l1.5-7.9h4l-3.8,21.9h-3.6l0.2-1.7c-1.1,1.3-2.5,2-4,2c-1,0-1.8-0.3-2.5-0.8
		s-1.3-1.2-1.7-2.1c-0.4-0.9-0.6-2-0.6-3.1c0-0.6,0-1.2,0-1.7l0.1-0.6c0.2-1.6,0.7-3,1.3-4.2c0.6-1.2,1.4-2.1,2.4-2.7
		C144.9,35.7,145.9,35.5,147.1,35.5z M144.2,43.8c-0.1,0.7-0.1,1.3-0.1,1.8c0.1,1.7,0.8,2.5,2,2.6c1.1,0,2.1-0.5,2.9-1.6l1.1-6.1
		c-0.4-1-1.1-1.5-2.2-1.6c-1,0-1.8,0.3-2.4,1.1C144.9,40.8,144.4,42,144.2,43.8z"/>
	<path class="st1" d="M162.9,51.5c-1.4,0-2.5-0.3-3.6-1c-1-0.7-1.8-1.5-2.3-2.7s-0.7-2.4-0.6-3.8l0-0.6c0.1-1.5,0.6-2.9,1.3-4.1
		c0.7-1.3,1.7-2.2,2.8-2.9s2.4-1,3.8-1c2,0,3.5,0.8,4.5,2.2c1,1.4,1.4,3.2,1.2,5.4l-0.2,1.8h-9.4c0,1,0.2,1.8,0.7,2.4
		c0.5,0.6,1.2,0.9,2.1,0.9c1.5,0,2.7-0.5,3.8-1.7l1.8,2.3c-0.6,0.9-1.4,1.6-2.5,2S164.1,51.5,162.9,51.5z M164.1,38.8
		c-0.7,0-1.4,0.2-2,0.7c-0.6,0.5-1.1,1.3-1.5,2.5h5.5l0.1-0.4c0.1-0.4,0.1-0.7,0-1.1c-0.1-0.6-0.3-1-0.7-1.3
		C165.2,39,164.7,38.8,164.1,38.8z"/>
	<path class="st1" d="M187.6,51.2h-4l-5.8-13.8l-2.4,13.8h-4.2l3.6-20.7h4l5.8,13.9l2.4-13.9h4.2L187.6,51.2z"/>
	<path class="st1" d="M198.4,51.5c-1.3,0-2.5-0.3-3.6-1c-1-0.7-1.8-1.5-2.3-2.7c-0.5-1.1-0.7-2.4-0.6-3.8l0-0.6
		c0.1-1.5,0.6-2.9,1.3-4.1c0.7-1.3,1.7-2.2,2.8-2.9s2.4-1,3.8-1c2,0,3.5,0.8,4.5,2.2c1,1.4,1.4,3.2,1.2,5.4l-0.2,1.8h-9.4
		c0,1,0.2,1.8,0.7,2.4c0.5,0.6,1.2,0.9,2.1,0.9c1.5,0,2.7-0.5,3.8-1.7l1.8,2.3c-0.6,0.9-1.4,1.6-2.5,2
		C200.9,51.3,199.7,51.5,198.4,51.5z M199.7,38.8c-0.7,0-1.4,0.2-2,0.7c-0.6,0.5-1.1,1.3-1.5,2.5h5.5l0.1-0.4c0.1-0.4,0.1-0.7,0-1.1
		c-0.1-0.6-0.3-1-0.7-1.3C200.8,39,200.3,38.8,199.7,38.8z"/>
	<path class="st1" d="M214,40.4l3.2-4.6h4.5l-5.6,7.8l3.1,7.7h-4.1l-1.9-4.8l-3.4,4.8h-4.5l5.8-8.1l-3-7.4h4.1L214,40.4z"/>
	<path class="st1" d="M229.3,32l-0.7,3.8h2.6l-0.5,3h-2.6l-1.3,7.7c-0.1,0.5,0,0.9,0.1,1.1s0.5,0.4,1,0.4c0.2,0,0.6,0,1.2-0.1
		l-0.3,3.1c-0.7,0.2-1.5,0.3-2.3,0.3c-1.3,0-2.3-0.4-2.9-1.2c-0.6-0.8-0.9-1.9-0.8-3.3l1.3-8.1h-2.2l0.5-3h2.2l0.7-3.8L229.3,32
		L229.3,32z"/>
</g>
<g>
	<g>
		<path class="st1" d="M27.1,8.4L24,4l-3.2,4.4c-1.8,2.5-1.8,5.8,0,8.3L24,21l3.2-4.4C28.9,14.2,28.9,10.8,27.1,8.4z"/>
		<path class="st0" d="M14.9,62.1c-0.8,0-1.7-0.3-2.3-1c-1.3-1.3-1.3-3.4,0-4.7l17-17L11.5,21.4c-1.3-1.3-1.3-3.4,0-4.7
			c1.3-1.3,3.4-1.3,4.7,0l20.4,20.4c0.6,0.6,1,1.5,1,2.3s-0.3,1.7-1,2.3L17.2,61.1C16.6,61.8,15.7,62.1,14.9,62.1z"/>
	</g>
	<path class="st1" d="M34.2,62.1c-0.8,0-1.6-0.3-2.2-0.8L10.4,41.9c-0.7-0.6-1.1-1.5-1.1-2.5s0.4-1.8,1.1-2.5l22.7-20.4
		c1.4-1.2,3.4-1.1,4.7,0.3c1.2,1.4,1.1,3.4-0.3,4.7l-20,17.9l18.8,16.9c1.4,1.2,1.5,3.3,0.3,4.7C36,61.7,35.1,62.1,34.2,62.1z"/>
</g>
</svg>
